<?xml version="1.0" encoding="UTF-8"?>
<svg id="Capa_1" xmlns="http://www.w3.org/2000/svg" version="1.1" viewBox="0 0 125.61 55.51">
  <!-- Generator: Adobe Illustrator 29.5.1, SVG Export Plug-In . SVG Version: 2.1.0 Build 141)  -->
  <defs>
    <style>
      .st0 {
        fill: #fff;
      }
    </style>
  </defs>
  <path class="st0" d="M115.85,18.9s-.04,0-.06-.02c-.09-.03-1.03-2.56-.43-4.44.57-1.76,2.81-3.4,2.93-3.36.02,0,.04.02.07.03.01,0,.02,0,.02,0l7.23,5.43-.77,2.43-8.96-.07s-.01,0-.03-.02ZM107.32,18.93l2.23,8.68,2.55.12,3.4-8.39s0,0,0-.02c0-.02,0-.05,0-.07,0-.13-2.15-1.88-4-1.97-1.97-.1-4.17,1.46-4.18,1.55,0,.02,0,.04,0,.07,0,.02,0,.04,0,.04ZM104.41,10.87l-7.27,5.24.82,2.42,9.05.11s0,0,.02-.01c.02,0,.05,0,.07-.02.13-.04.97-2.68.38-4.44-.62-1.87-2.88-3.35-2.97-3.32-.02,0-.04.02-.06.03-.02,0-.04,0-.04,0ZM111.31,5.67l-7.21-5.32-2.05,1.52,2.67,8.64s0,0,.02.01c.01.02.02.04.04.06.08.11,2.85.1,4.34-1,1.59-1.16,2.31-3.77,2.26-3.84-.01-.02-.03-.03-.04-.05-.01-.02-.02-.03-.02-.03ZM118.32,10.66l3.1-8.41-2.03-1.55-7.56,4.97s0,0,0,.02c-.02.02-.03.03-.05.05-.08.11.7,2.77,2.16,3.9,1.56,1.2,4.26,1.17,4.32,1.1.01-.02.03-.04.04-.05.02-.02.03-.03.03-.03Z"/>
  <path class="st0" d="M52.54,33.67c-1.28-.19-2.44-.09-3.49.3-1.04.39-1.87,1.04-2.49,1.96-.62.91-.92,2.03-.92,3.36v8.82h-4.8v-18.63h4.48v4.63c.33-.9.77-1.7,1.33-2.41.82-1.03,1.8-1.74,2.95-2.12,1.15-.38,2.35-.34,3.61.11l-.68,3.98ZM112.83,38.79c0,1.9-.4,3.59-1.21,5.07-.81,1.48-1.91,2.63-3.32,3.45-1.41.82-3,1.23-4.78,1.23-1.61,0-3.02-.36-4.23-1.07-.83-.49-1.54-1.12-2.13-1.89v9.92h-4.8v-26.03h4.52v2.92c.59-.88,1.32-1.6,2.2-2.16,1.26-.79,2.74-1.19,4.45-1.19s3.37.41,4.78,1.23c1.41.82,2.52,1.97,3.32,3.45.81,1.48,1.21,3.17,1.21,5.07ZM107.92,38.79c0-1.21-.23-2.28-.68-3.22-.45-.94-1.08-1.65-1.9-2.15-.82-.5-1.74-.75-2.76-.75s-1.97.25-2.79.75c-.82.5-1.46,1.22-1.94,2.15-.47.94-.71,2.01-.71,3.22s.24,2.28.71,3.22c.47.94,1.12,1.65,1.94,2.15.82.5,1.75.75,2.79.75s1.94-.25,2.76-.75c.82-.5,1.45-1.21,1.9-2.15.45-.94.68-2.01.68-3.22ZM86.28,40.53c0,.78-.16,1.49-.48,2.13-.32.64-.78,1.15-1.39,1.53-.6.38-1.35.57-2.22.57-.76,0-1.41-.15-1.96-.46-.55-.31-.97-.78-1.26-1.4-.3-.63-.44-1.42-.44-2.36v-11.06h-4.8v11.66c0,1.71.28,3.11.85,4.2.57,1.09,1.37,1.9,2.4,2.42,1.03.52,2.26.78,3.68.78,1.52,0,2.86-.37,4.02-1.1.76-.48,1.4-1.08,1.92-1.79v2.47h4.52v-18.63h-4.84v11.06ZM71.15,33.72c.89,1.48,1.33,3.17,1.33,5.07s-.44,3.59-1.33,5.07c-.89,1.48-2.12,2.63-3.7,3.45-1.58.82-3.37,1.23-5.39,1.23s-3.77-.41-5.33-1.23c-1.56-.82-2.79-1.97-3.68-3.45-.89-1.48-1.33-3.17-1.33-5.07s.44-3.59,1.33-5.07c.89-1.48,2.12-2.63,3.68-3.45,1.56-.82,3.34-1.23,5.33-1.23s3.81.41,5.39,1.23c1.58.82,2.81,1.97,3.7,3.45ZM67.58,38.79c0-1.21-.23-2.28-.69-3.22-.46-.94-1.11-1.67-1.96-2.19-.84-.52-1.78-.78-2.83-.78s-2.02.26-2.85.78c-.83.52-1.48,1.26-1.94,2.2-.46.95-.69,2.02-.69,3.2s.23,2.28.69,3.22c.46.94,1.11,1.67,1.96,2.19.84.52,1.78.78,2.83.78s2.01-.26,2.84-.78c.83-.52,1.48-1.26,1.94-2.2.46-.95.69-2.01.69-3.2ZM57.88,22.64c-.96-1.51-1.45-3.29-1.45-5.3s.48-3.75,1.42-5.27c.94-1.51,2.25-2.71,3.9-3.55,1.65-.85,3.55-1.27,5.64-1.27,2.23,0,4.18.5,5.78,1.47,1.59.97,2.77,2.33,3.49,4.02.69,1.64.9,3.45.6,5.4h-13.73l.09.32c.12.43.29.83.5,1.18.48.78,1.13,1.37,1.94,1.76.8.38,1.69.57,2.66.57s1.98-.14,2.98-.43c.95-.27,1.92-.67,2.9-1.19l2.56,1.75c-.31.56-.85,1.25-1.61,2.02-.84.87-1.98,1.64-3.38,2.31-1.39.66-2.98.99-4.72.99-2.04,0-3.92-.42-5.59-1.26-1.66-.83-3-2.02-3.96-3.53ZM63.5,15.25h7.48v-.26c-.02-.18-.03-.36-.06-.54-.13-.92-.51-1.68-1.12-2.25-.61-.57-1.43-.86-2.42-.86-.72,0-1.39.18-1.98.55-.6.36-1.09.97-1.46,1.79-.16.36-.29.79-.39,1.26l-.06.3ZM35.37,18.77v5.42c1.52,1.08,2.74,2.45,3.65,4.14l-4.3,1.78c-.71-1.37-1.68-2.45-2.9-3.22-1.22-.77-2.63-1.16-4.21-1.16s-3.04.39-4.27,1.17c-1.23.78-2.2,1.87-2.9,3.25-.7,1.39-1.05,2.96-1.05,4.71s.36,3.4,1.07,4.85c.71,1.46,1.72,2.61,3.02,3.45,1.3.84,2.79,1.26,4.45,1.26,1.23,0,2.4-.22,3.5-.68,1.1-.45,1.99-1.08,2.65-1.9.66-.82,1-1.75,1-2.79v-1.17h-6.51v-3.84h11.06v14.05h-4.27v-3.32c-.87,1.03-1.9,1.85-3.11,2.47-1.67.85-3.54,1.28-5.6,1.28-2.44,0-4.6-.57-6.49-1.72-1.88-1.15-3.35-2.74-4.41-4.78-1.06-2.04-1.58-4.33-1.58-6.86s.56-4.89,1.69-6.92c.78-1.41,1.78-2.59,2.98-3.57l-.62-1.85h-10.04l-1.21,4.15H0L9.23,0h9l7.6,21.87c.5-.05,1.01-.08,1.53-.08.3,0,.6,0,.89.02V7.7h6.51v4.55l.46.08.04-.1c.34-.91.79-1.74,1.34-2.44.88-1.13,1.93-1.87,3.13-2.19.4-.11.81-.16,1.22-.16.24,0,.49.02.75.06v6.24c-.36-.04-.72-.06-1.06-.06-.61,0-1.19.06-1.72.18-1.09.25-1.96.79-2.6,1.6-.64.81-.96,1.92-.96,3.31ZM16.62,17.37l-3.42-11.71-3.42,11.71h6.85ZM94.38,24.48c.71-.96,1.06-2.14,1.06-3.51,0-1.65-.54-2.95-1.61-3.87-1.09-.94-2.97-1.7-5.59-2.27l-.68-.15c-.74-.18-1.32-.37-1.73-.57-.48-.23-.73-.6-.73-1.08,0-.42.21-.76.63-1.01.38-.22.92-.34,1.62-.34.93,0,2,.2,3.2.6,1.05.35,1.99.76,2.77,1.2l1.28-4.15c-.95-.55-2.05-1.04-3.27-1.44-1.29-.43-2.76-.65-4.36-.65s-3.13.26-4.42.78c-1.27.51-2.27,1.26-2.98,2.24-.71.97-1.07,2.16-1.07,3.53,0,1.6.54,2.85,1.61,3.73,1.1.9,2.98,1.66,5.6,2.25l.68.15c.76.18,1.32.37,1.73.57.48.23.73.62.73,1.12,0,.45-.22.8-.66,1.05-.39.23-.97.34-1.75.34-1.16,0-2.41-.23-3.73-.69-1.18-.41-2.19-.87-3.01-1.37l-1.38,4.02c.82.62,1.98,1.18,3.44,1.68,1.55.53,3.26.8,5.09.8,1.7,0,3.21-.25,4.51-.76,1.28-.5,2.29-1.23,3-2.2ZM45.05,25.49c1.16,1.28,2.77,1.94,4.78,1.94,1.23,0,2.47-.14,3.68-.41,1.12-.25,2.03-.56,2.72-.91l-.54-3.57c-.37.06-.78.12-1.21.17-.54.06-1.02.1-1.41.1-.75,0-1.39-.26-1.9-.77-.51-.51-.77-1.2-.77-2.05v-7.31h5.47v-4.97h-5.47V2.64h-3.83c.03.2.04.38.04.55,0,2.02-1.47,3.8-3.44,4.18l.11,12.95c0,2.14.59,3.88,1.77,5.17Z"/>
</svg>